<?xml version="1.0" encoding="utf-8"?>
<!-- Generator: Adobe Illustrator 16.0.0, SVG Export Plug-In . SVG Version: 6.00 Build 0)  -->
<!DOCTYPE svg PUBLIC "-//W3C//DTD SVG 1.1//EN" "http://www.w3.org/Graphics/SVG/1.1/DTD/svg11.dtd">
<svg version="1.1" id="Layer_1" xmlns="http://www.w3.org/2000/svg" xmlns:xlink="http://www.w3.org/1999/xlink" x="0px" y="0px"
	 width="180px" height="33px" viewBox="0 0 180 33" enable-background="new 0 0 180 33" xml:space="preserve">
<g>
	<path fill="#FFFFFF" d="M11.129,24.839v-5.838H4.906v5.838h-3.82V9.814h3.82v6.182h6.224V9.814h3.82v15.024H11.129z"/>
	<path fill="#FFFFFF" d="M28.668,24.839h-3.713v-1.91c-0.794,1.373-2.082,2.061-3.756,2.061c-2.511,0-4.142-1.717-4.142-4.421
		v-7.298h3.713v6.245c0,1.374,0.751,2.211,1.932,2.211c1.417-0.021,2.253-1.18,2.253-2.747v-5.709h3.713V24.839z"/>
	<path fill="#FFFFFF" d="M50.714,17.541v7.298h-3.691v-6.268c0-1.373-0.772-2.21-1.996-2.21c-1.395,0.042-2.254,1.18-2.254,2.747
		v5.73H39.06v-6.268c0-1.373-0.751-2.21-1.975-2.21c-1.417,0.042-2.296,1.18-2.296,2.747v5.73h-3.691V13.271h3.691v1.91
		c0.794-1.374,2.125-2.061,3.82-2.082c1.889,0,3.284,0.987,3.863,2.618c0.751-1.717,2.168-2.597,4.078-2.618
		C49.083,13.099,50.714,14.837,50.714,17.541z"/>
	<path fill="#FFFFFF" d="M63.06,17.283v7.556h-3.627v-1.331c-0.751,0.988-1.975,1.502-3.541,1.502c-2.469,0-3.971-1.502-3.971-3.626
		c0-2.19,1.566-3.478,4.443-3.499h3.047v-0.171c0-1.139-0.75-1.825-2.253-1.825c-0.966,0-2.232,0.344-3.456,0.967l-1.052-2.448
		c1.803-0.837,3.434-1.309,5.366-1.309C61.193,13.099,63.039,14.665,63.06,17.283z M59.411,20.911v-1.03h-2.338
		c-1.117,0-1.675,0.387-1.675,1.245c0,0.837,0.601,1.373,1.631,1.373C58.188,22.499,59.175,21.855,59.411,20.911z"/>
	<path fill="#FFFFFF" d="M76.971,17.541v7.298H73.28v-6.268c0-1.352-0.794-2.188-2.04-2.188c-1.352,0-2.21,0.966-2.36,2.339v6.117
		h-3.713V13.271h3.713v1.889c0.815-1.353,2.146-2.039,3.862-2.061C75.297,13.099,76.971,14.837,76.971,17.541z"/>
	<path fill="#FFFFFF" d="M82.92,12.819v3.477h6.738v3.005H82.92v5.538H79.1V9.814h11.138v3.005H82.92z"/>
	<path fill="#FFFFFF" d="M95.328,9.943c0,1.159-0.815,1.975-1.953,1.975c-1.137,0-1.952-0.815-1.952-1.975
		c0-1.138,0.815-1.953,1.952-1.953C94.513,7.99,95.328,8.806,95.328,9.943z M91.508,24.839V13.271h3.691v11.568H91.508z"/>
	<path fill="#FFFFFF" d="M101.36,15.224c0.795-1.353,2.104-2.104,3.757-2.125v3.348c-2.146-0.192-3.563,0.815-3.757,2.448v5.944
		h-3.713V13.271h3.713V15.224z"/>
	<path fill="#FFFFFF" d="M117.18,20.053h-8.134c0.364,1.373,1.353,2.146,2.726,2.146c1.009,0,1.997-0.408,2.769-1.181l1.954,1.91
		c-1.181,1.287-2.92,2.039-5.045,2.039c-3.776,0-6.139-2.36-6.139-5.881c0-3.585,2.447-5.945,6.032-5.945
		C115.421,13.142,117.438,15.824,117.18,20.053z M113.617,18.057c0-1.416-0.902-2.34-2.231-2.34c-1.289,0-2.168,0.944-2.403,2.34
		H113.617z"/>
	<path fill="#FFFFFF" d="M129.159,24.839l-2.274-7.341l-2.275,7.341h-3.691l-4.229-11.568h3.778l2.382,8.006l2.317-8.006h3.542
		l2.383,8.006l2.339-8.006h3.627l-4.229,11.568H129.159z"/>
	<path fill="#FFFFFF" d="M147.729,17.283v7.556h-3.627v-1.331c-0.752,0.988-1.975,1.502-3.541,1.502
		c-2.47,0-3.971-1.502-3.971-3.626c0-2.19,1.566-3.478,4.442-3.499h3.047v-0.171c0-1.139-0.751-1.825-2.253-1.825
		c-0.966,0-2.231,0.344-3.455,0.967l-1.052-2.448c1.803-0.837,3.434-1.309,5.365-1.309
		C145.861,13.099,147.708,14.665,147.729,17.283z M144.08,20.911v-1.03h-2.339c-1.116,0-1.674,0.387-1.674,1.245
		c0,0.837,0.602,1.373,1.631,1.373C142.856,22.499,143.845,21.855,144.08,20.911z"/>
	<path fill="#FFFFFF" d="M149.942,24.839V8.913h3.714v15.926H149.942z"/>
	<path fill="#FFFFFF" d="M156.298,24.839V8.913h3.713v15.926H156.298z"/>
</g>
<g>
	<path fill="#FFFFFF" d="M165.104,6.709v7.528h-2.405V6.709h-2.825V4.763h8.083v1.946H165.104z"/>
	<path fill="#FFFFFF" d="M176.918,14.237l-0.013-6.15l-2.272,5.204h-1.566l-2.271-5.204v6.15h-2.149V4.763h2.636l2.568,5.636
		l2.567-5.636h2.622v9.475H176.918z"/>
</g>
</svg>
