<?xml version="1.0" encoding="utf-8"?>
<!-- Generator: Adobe Illustrator 16.0.0, SVG Export Plug-In . SVG Version: 6.00 Build 0)  -->
<!DOCTYPE svg PUBLIC "-//W3C//DTD SVG 1.1//EN" "http://www.w3.org/Graphics/SVG/1.1/DTD/svg11.dtd">
<svg version="1.1" id="Layer_1" xmlns="http://www.w3.org/2000/svg" xmlns:xlink="http://www.w3.org/1999/xlink" x="0px" y="0px"
	 width="200px" height="23.67px" viewBox="0 0 200 23.67" enable-background="new 0 0 200 23.67" xml:space="preserve">
<g>
	<path fill="#010101" d="M19.838,2.57l-2.232,18.066H13.54l0.955-7.688H7.973l-0.956,7.688H2.951L5.183,2.57h4.066l-0.942,7.626
		h6.522l0.942-7.626H19.838z"/>
	<path fill="#010101" d="M33.068,7.778l-1.563,12.858h-1.959c-0.91,0-1.364-0.422-1.364-1.265v-0.818
		c-0.62,0.777-1.285,1.351-1.996,1.723c-0.711,0.372-1.451,0.558-2.22,0.558c-0.538,0-1.025-0.108-1.463-0.323
		c-0.438-0.214-0.804-0.531-1.097-0.948c-0.293-0.417-0.503-0.93-0.626-1.538c-0.124-0.607-0.136-1.303-0.037-2.089l0.966-8.158
		h3.844l-0.967,8.158c-0.042,0.348-0.056,0.641-0.043,0.88c0.013,0.24,0.056,0.433,0.13,0.577s0.175,0.247,0.304,0.31
		c0.128,0.062,0.287,0.092,0.477,0.092c0.265,0,0.537-0.076,0.818-0.23c0.282-0.151,0.554-0.367,0.819-0.644
		c0.265-0.276,0.51-0.613,0.738-1.011c0.227-0.396,0.416-0.838,0.564-1.326l0.83-6.807H33.068z"/>
	<path fill="#010101" d="M33.936,20.636l1.563-12.858h1.984c0.397,0,0.706,0.092,0.929,0.279c0.224,0.186,0.335,0.49,0.335,0.911
		v0.757c0.545-0.728,1.12-1.267,1.723-1.619c0.604-0.351,1.235-0.527,1.897-0.527c0.727,0,1.331,0.236,1.811,0.707
		c0.479,0.472,0.785,1.158,0.917,2.059c0.57-0.951,1.195-1.649,1.873-2.096c0.677-0.446,1.442-0.669,2.293-0.669
		c0.538,0,1.021,0.108,1.451,0.323c0.43,0.215,0.785,0.528,1.066,0.941s0.477,0.924,0.589,1.531c0.111,0.607,0.118,1.304,0.019,2.09
		l-0.967,8.171h-3.794l0.967-8.171c0.041-0.348,0.055-0.641,0.042-0.881c-0.012-0.239-0.049-0.43-0.111-0.57
		c-0.062-0.141-0.151-0.242-0.267-0.304c-0.116-0.062-0.252-0.093-0.409-0.093c-0.257,0-0.502,0.068-0.738,0.205
		c-0.235,0.137-0.458,0.335-0.67,0.595c-0.21,0.26-0.403,0.574-0.576,0.943c-0.174,0.368-0.327,0.778-0.458,1.233l-0.831,7.042
		H40.78l0.968-8.171c0.041-0.348,0.056-0.641,0.043-0.881c-0.013-0.239-0.05-0.43-0.112-0.57c-0.062-0.141-0.15-0.242-0.267-0.304
		c-0.116-0.062-0.252-0.093-0.409-0.093c-0.256,0-0.504,0.07-0.744,0.211c-0.24,0.14-0.465,0.343-0.676,0.607
		c-0.21,0.265-0.403,0.585-0.577,0.961s-0.327,0.796-0.459,1.258l-0.843,6.981H33.936z"/>
	<path fill="#010101" d="M61.176,18.491c-0.521,0.728-1.105,1.299-1.754,1.718c-0.648,0.417-1.362,0.625-2.139,0.625
		c-0.463,0-0.909-0.094-1.339-0.279c-0.43-0.186-0.81-0.467-1.14-0.843c-0.331-0.375-0.595-0.855-0.793-1.438
		c-0.198-0.582-0.297-1.271-0.297-2.064c0-1.165,0.212-2.271,0.638-3.316c0.426-1.046,1.021-1.961,1.785-2.747
		c0.765-0.785,1.672-1.41,2.722-1.872c1.05-0.463,2.203-0.695,3.459-0.695c0.611,0,1.231,0.042,1.86,0.125
		c0.628,0.083,1.248,0.231,1.86,0.446l-1.563,12.486h-2.059c-0.239,0-0.44-0.032-0.601-0.093s-0.29-0.146-0.384-0.254
		c-0.095-0.107-0.161-0.236-0.199-0.385s-0.056-0.31-0.056-0.483V18.491z M61.771,10.221c-0.628,0-1.201,0.14-1.717,0.421
		s-0.961,0.664-1.333,1.147c-0.372,0.484-0.66,1.046-0.862,1.686c-0.203,0.642-0.304,1.326-0.304,2.053
		c0,0.413,0.033,0.764,0.099,1.054c0.066,0.289,0.156,0.522,0.267,0.7c0.111,0.178,0.244,0.309,0.397,0.392
		c0.153,0.083,0.32,0.123,0.501,0.123c0.282,0,0.554-0.104,0.818-0.316c0.265-0.21,0.515-0.498,0.751-0.862
		c0.235-0.363,0.452-0.789,0.65-1.277c0.198-0.487,0.368-1.008,0.508-1.562l0.459-3.558H61.771z"/>
	<path fill="#010101" d="M71.69,9.997c0.62-0.827,1.297-1.436,2.033-1.828c0.736-0.393,1.497-0.59,2.282-0.59
		c0.529,0,1.015,0.108,1.457,0.323c0.442,0.215,0.81,0.528,1.104,0.941c0.293,0.414,0.502,0.924,0.626,1.531
		c0.124,0.607,0.136,1.304,0.038,2.09l-0.967,8.171h-3.844l0.967-8.171c0.041-0.348,0.056-0.641,0.043-0.881
		c-0.013-0.239-0.056-0.43-0.131-0.57c-0.074-0.141-0.178-0.242-0.31-0.304c-0.132-0.062-0.29-0.093-0.471-0.093
		c-0.281,0-0.574,0.086-0.88,0.26c-0.306,0.174-0.597,0.419-0.875,0.738c-0.277,0.318-0.531,0.703-0.762,1.153
		c-0.231,0.45-0.413,0.949-0.545,1.494l-0.707,6.373h-3.844l1.538-12.858h1.984c0.397,0,0.707,0.092,0.93,0.279
		c0.223,0.186,0.334,0.49,0.334,0.911V9.997z"/>
	<path fill="#CF202E" d="M86.669,5.683l-0.583,4.761h5.58l-0.422,3.113h-5.542l-0.88,7.08h-4.067L82.986,2.57h10.763l-0.397,3.113
		H86.669z"/>
	<path fill="#CF202E" d="M98.808,7.778l-1.537,12.858h-3.794l1.538-12.858H98.808z M99.526,4.256c0,0.306-0.066,0.593-0.198,0.862
		c-0.132,0.269-0.306,0.504-0.521,0.707c-0.215,0.203-0.461,0.364-0.738,0.484c-0.276,0.12-0.56,0.18-0.849,0.18
		c-0.29,0-0.567-0.06-0.831-0.18c-0.265-0.12-0.499-0.281-0.701-0.484c-0.203-0.203-0.366-0.438-0.49-0.707
		c-0.124-0.269-0.186-0.556-0.186-0.862c0-0.306,0.062-0.595,0.186-0.868c0.125-0.272,0.292-0.512,0.502-0.719
		c0.211-0.206,0.448-0.37,0.713-0.49S96.956,2,97.245,2c0.298,0,0.583,0.058,0.856,0.174c0.272,0.115,0.514,0.277,0.725,0.483
		c0.212,0.207,0.38,0.447,0.509,0.719C99.463,3.648,99.526,3.943,99.526,4.256z"/>
	<path fill="#CF202E" d="M104.599,10.431c0.313-0.553,0.648-1.029,1.003-1.426c0.355-0.397,0.722-0.704,1.099-0.924
		c0.376-0.219,0.761-0.343,1.152-0.372c0.392-0.029,0.787,0.047,1.184,0.229l-0.693,3.559c-0.472-0.199-0.912-0.289-1.321-0.273
		c-0.408,0.017-0.784,0.157-1.128,0.422c-0.344,0.264-0.652,0.662-0.929,1.19c-0.278,0.529-0.516,1.207-0.714,2.034l-0.693,5.766
		h-3.771l1.563-12.858h1.983c0.397,0,0.706,0.092,0.93,0.279c0.225,0.186,0.336,0.49,0.336,0.911V10.431z"/>
	<path fill="#CF202E" d="M119.725,18.255c-0.454,0.446-0.898,0.833-1.332,1.16c-0.435,0.326-0.882,0.594-1.34,0.806
		c-0.459,0.211-0.946,0.366-1.463,0.465c-0.517,0.099-1.081,0.148-1.692,0.148c-0.761,0-1.459-0.13-2.096-0.391
		c-0.636-0.26-1.184-0.628-1.643-1.103c-0.459-0.475-0.814-1.048-1.066-1.717c-0.253-0.67-0.378-1.415-0.378-2.232
		c0-0.687,0.075-1.356,0.229-2.009c0.151-0.653,0.371-1.266,0.657-1.841c0.284-0.575,0.634-1.104,1.048-1.587
		c0.413-0.483,0.878-0.899,1.395-1.246s1.082-0.618,1.699-0.812c0.614-0.194,1.271-0.291,1.965-0.291
		c0.686,0,1.296,0.099,1.829,0.298c0.533,0.198,0.98,0.457,1.346,0.774c0.362,0.318,0.64,0.676,0.83,1.072
		c0.189,0.397,0.284,0.794,0.284,1.19c0,0.587-0.115,1.123-0.346,1.606c-0.232,0.484-0.635,0.916-1.21,1.296
		c-0.574,0.381-1.348,0.703-2.319,0.967c-0.97,0.265-2.192,0.471-3.663,0.62c0.017,0.876,0.209,1.517,0.577,1.921
		c0.367,0.406,0.911,0.608,1.63,0.608c0.339,0,0.632-0.029,0.881-0.087c0.248-0.057,0.465-0.132,0.65-0.223s0.354-0.186,0.502-0.286
		c0.148-0.099,0.292-0.193,0.428-0.285c0.137-0.09,0.279-0.165,0.428-0.223c0.149-0.057,0.318-0.086,0.509-0.086
		c0.124,0,0.244,0.03,0.359,0.092c0.115,0.062,0.219,0.142,0.31,0.242L119.725,18.255z M115.484,10.196
		c-0.637,0-1.195,0.253-1.673,0.762c-0.48,0.508-0.836,1.205-1.067,2.089c0.794-0.124,1.438-0.256,1.935-0.396
		c0.495-0.141,0.88-0.291,1.152-0.453s0.457-0.333,0.552-0.515c0.096-0.181,0.145-0.38,0.145-0.595c0-0.215-0.084-0.417-0.25-0.607
		C116.112,10.291,115.848,10.196,115.484,10.196z"/>
	<path fill="#CF202E" d="M139.8,7.778l-5.233,12.858h-3c-0.149,0-0.271-0.049-0.366-0.149c-0.096-0.099-0.164-0.264-0.204-0.496
		l-0.943-6.41c-0.024-0.182-0.047-0.362-0.068-0.54c-0.021-0.177-0.039-0.361-0.055-0.552c-0.067,0.19-0.136,0.376-0.205,0.558
		c-0.071,0.182-0.143,0.368-0.217,0.558l-2.455,6.385c-0.175,0.43-0.447,0.645-0.818,0.645h-2.876L121.25,7.778h2.951
		c0.248,0,0.453,0.064,0.613,0.192c0.161,0.128,0.263,0.287,0.305,0.477l0.371,5.767c0.059,0.842,0.095,1.661,0.111,2.455
		c0.149-0.396,0.307-0.8,0.471-1.209c0.165-0.409,0.335-0.825,0.51-1.246l2.156-5.779c0.074-0.189,0.208-0.349,0.397-0.477
		c0.19-0.128,0.396-0.191,0.619-0.191h1.662c0.265,0,0.478,0.063,0.64,0.191c0.16,0.128,0.253,0.288,0.277,0.477l0.744,5.779
		c0.066,0.421,0.125,0.834,0.174,1.239c0.05,0.405,0.095,0.81,0.137,1.215c0.115-0.396,0.237-0.798,0.366-1.203
		c0.127-0.405,0.267-0.822,0.414-1.251l1.811-5.767c0.066-0.189,0.193-0.348,0.379-0.477c0.185-0.128,0.39-0.192,0.613-0.192H139.8z
		"/>
	<path fill="#CF202E" d="M146.668,18.491c-0.521,0.728-1.105,1.299-1.754,1.718c-0.65,0.417-1.363,0.625-2.141,0.625
		c-0.463,0-0.907-0.094-1.339-0.279c-0.429-0.186-0.81-0.467-1.14-0.843c-0.33-0.375-0.596-0.855-0.794-1.438
		c-0.198-0.582-0.297-1.271-0.297-2.064c0-1.165,0.212-2.271,0.639-3.316c0.425-1.046,1.021-1.961,1.786-2.747
		c0.764-0.785,1.67-1.41,2.721-1.872c1.049-0.463,2.203-0.695,3.459-0.695c0.612,0,1.231,0.042,1.859,0.125
		c0.628,0.083,1.248,0.231,1.86,0.446l-1.563,12.486h-2.058c-0.239,0-0.439-0.032-0.601-0.093c-0.162-0.062-0.289-0.146-0.385-0.254
		c-0.096-0.107-0.16-0.236-0.198-0.385c-0.037-0.148-0.056-0.31-0.056-0.483V18.491z M147.264,10.221
		c-0.629,0-1.201,0.14-1.718,0.421s-0.961,0.664-1.332,1.147c-0.373,0.484-0.661,1.046-0.862,1.686
		c-0.203,0.642-0.304,1.326-0.304,2.053c0,0.413,0.031,0.764,0.1,1.054c0.064,0.289,0.155,0.522,0.266,0.7
		c0.111,0.178,0.243,0.309,0.396,0.392c0.154,0.083,0.321,0.123,0.503,0.123c0.281,0,0.554-0.104,0.818-0.316
		c0.266-0.21,0.515-0.498,0.751-0.862c0.235-0.363,0.453-0.789,0.65-1.277c0.198-0.487,0.368-1.008,0.509-1.562l0.458-3.558H147.264
		z"/>
	<path fill="#CF202E" d="M152.385,20.636l2.255-18.562h3.794l-2.256,18.562H152.385z"/>
	<path fill="#CF202E" d="M158.607,20.636l2.257-18.562h3.794l-2.257,18.562H158.607z"/>
	<path fill="#CF202E" d="M164.708,18.689c0-0.298,0.056-0.575,0.168-0.832c0.11-0.256,0.264-0.478,0.458-0.669
		c0.194-0.189,0.423-0.341,0.688-0.452c0.265-0.112,0.553-0.168,0.868-0.168c0.306,0,0.59,0.056,0.854,0.168
		c0.266,0.111,0.497,0.263,0.695,0.452c0.198,0.191,0.354,0.413,0.465,0.669c0.11,0.257,0.167,0.534,0.167,0.832
		s-0.057,0.576-0.167,0.837c-0.111,0.259-0.267,0.485-0.465,0.675c-0.198,0.19-0.43,0.339-0.695,0.446
		c-0.265,0.107-0.549,0.162-0.854,0.162c-0.315,0-0.604-0.055-0.868-0.162c-0.266-0.107-0.494-0.256-0.688-0.446
		c-0.194-0.19-0.348-0.416-0.458-0.675C164.764,19.265,164.708,18.987,164.708,18.689z"/>
	<path fill="#CF202E" d="M176.264,7.778l-1.538,12.858h-3.795l1.538-12.858H176.264z M176.982,4.256
		c0,0.306-0.066,0.593-0.199,0.862c-0.132,0.269-0.306,0.504-0.52,0.707c-0.216,0.203-0.462,0.364-0.738,0.484
		c-0.277,0.12-0.56,0.18-0.849,0.18c-0.29,0-0.567-0.06-0.831-0.18c-0.265-0.12-0.498-0.281-0.7-0.484
		c-0.203-0.203-0.366-0.438-0.49-0.707s-0.187-0.556-0.187-0.862c0-0.306,0.063-0.595,0.187-0.868
		c0.124-0.272,0.291-0.512,0.502-0.719c0.211-0.206,0.448-0.37,0.713-0.49S174.411,2,174.702,2c0.296,0,0.582,0.058,0.854,0.174
		c0.272,0.115,0.515,0.277,0.725,0.483c0.212,0.207,0.38,0.447,0.509,0.719C176.918,3.648,176.982,3.943,176.982,4.256z"/>
	<path fill="#CF202E" d="M182.438,20.834c-0.719,0-1.391-0.119-2.015-0.359c-0.625-0.24-1.165-0.589-1.624-1.048
		c-0.459-0.459-0.818-1.024-1.079-1.699c-0.261-0.672-0.39-1.447-0.39-2.324c0-1.141,0.188-2.188,0.563-3.143
		c0.376-0.955,0.883-1.779,1.519-2.474c0.637-0.694,1.374-1.235,2.213-1.624c0.84-0.389,1.722-0.583,2.647-0.583
		c0.719,0,1.39,0.12,2.01,0.36c0.618,0.24,1.159,0.589,1.617,1.048c0.459,0.458,0.82,1.025,1.085,1.699
		c0.264,0.673,0.396,1.448,0.396,2.324c0,1.125-0.187,2.164-0.563,3.119c-0.376,0.955-0.882,1.782-1.519,2.479
		c-0.636,0.699-1.374,1.246-2.213,1.637C184.245,20.637,183.364,20.834,182.438,20.834z M182.784,17.981
		c0.43,0,0.814-0.129,1.154-0.39c0.338-0.259,0.626-0.615,0.862-1.066c0.234-0.451,0.416-0.975,0.545-1.575
		c0.127-0.6,0.192-1.238,0.192-1.916c0-0.934-0.127-1.602-0.378-2.002c-0.252-0.401-0.664-0.602-1.234-0.602
		c-0.43,0-0.813,0.13-1.153,0.391s-0.626,0.613-0.861,1.061c-0.235,0.446-0.418,0.971-0.547,1.575
		c-0.127,0.603-0.191,1.244-0.191,1.921c0,0.917,0.127,1.581,0.377,1.99C181.803,17.777,182.215,17.981,182.784,17.981z"/>
</g>
<g>
	<path fill="#010101" d="M192.589,2.979h-1.016v2.949h-0.839V2.979h-1.017V2.315h2.871V2.979z"/>
	<path fill="#010101" d="M197.075,2.315v3.613h-0.738V3.85c0-0.048,0.001-0.099,0.002-0.156c0.003-0.057,0.008-0.113,0.016-0.171
		l-0.961,1.857c-0.029,0.058-0.07,0.102-0.12,0.131c-0.05,0.03-0.107,0.045-0.172,0.045h-0.114c-0.064,0-0.122-0.015-0.173-0.045
		c-0.051-0.03-0.09-0.074-0.12-0.131l-0.959-1.863c0.005,0.06,0.009,0.118,0.012,0.176c0.003,0.056,0.006,0.109,0.006,0.157v2.079
		h-0.74V2.315h0.64c0.036,0,0.068,0,0.096,0.003c0.027,0.001,0.052,0.006,0.074,0.014c0.021,0.008,0.04,0.021,0.058,0.039
		c0.017,0.017,0.034,0.042,0.051,0.073l0.93,1.833c0.033,0.063,0.065,0.128,0.096,0.196c0.029,0.067,0.06,0.137,0.088,0.208
		c0.028-0.073,0.058-0.144,0.088-0.213c0.031-0.069,0.063-0.136,0.098-0.198l0.929-1.825c0.016-0.031,0.033-0.056,0.05-0.073
		c0.018-0.018,0.037-0.031,0.059-0.039c0.021-0.008,0.046-0.013,0.072-0.014c0.028-0.002,0.061-0.003,0.097-0.003H197.075z"/>
</g>
</svg>
