<?xml version="1.0" encoding="utf-8"?>
<!-- Generator: Adobe Illustrator 16.0.0, SVG Export Plug-In . SVG Version: 6.00 Build 0)  -->
<!DOCTYPE svg PUBLIC "-//W3C//DTD SVG 1.1//EN" "http://www.w3.org/Graphics/SVG/1.1/DTD/svg11.dtd">
<svg version="1.1" id="Layer_1" xmlns="http://www.w3.org/2000/svg" xmlns:xlink="http://www.w3.org/1999/xlink" x="0px" y="0px"
	 width="180px" height="33px" viewBox="0 0 180 33" enable-background="new 0 0 180 33" xml:space="preserve">
<g>
	<path fill="#FFFFFF" d="M15.968,9.399v17.166h-3.206v-7.504h-8.06v7.504H1.498V9.399h3.204v7.382h8.06V9.399H15.968z"/>
	<path fill="#FFFFFF" d="M29.595,14.384v12.181h-1.793c-0.388,0-0.634-0.181-0.736-0.535l-0.201-0.975
		c-0.499,0.508-1.05,0.918-1.65,1.229c-0.602,0.313-1.31,0.469-2.125,0.469c-0.664,0-1.252-0.112-1.762-0.34
		c-0.511-0.226-0.94-0.543-1.289-0.955c-0.348-0.41-0.611-0.899-0.789-1.465c-0.178-0.566-0.267-1.188-0.267-1.871v-7.739h2.932
		v7.739c0,0.744,0.172,1.319,0.517,1.729c0.344,0.405,0.859,0.608,1.549,0.608c0.507,0,0.98-0.11,1.425-0.336
		c0.443-0.228,0.862-0.537,1.258-0.935v-8.807L29.595,14.384L29.595,14.384z"/>
	<path fill="#FFFFFF" d="M32.49,26.564V14.384h1.792c0.38,0,0.63,0.178,0.748,0.534l0.189,0.902
		c0.214-0.237,0.438-0.455,0.671-0.653s0.482-0.368,0.748-0.51c0.266-0.143,0.55-0.255,0.854-0.338
		c0.305-0.083,0.639-0.125,1.003-0.125c0.768,0,1.398,0.208,1.894,0.624c0.494,0.416,0.864,0.967,1.109,1.655
		c0.19-0.403,0.428-0.749,0.713-1.038s0.598-0.524,0.938-0.707c0.34-0.181,0.702-0.316,1.086-0.403
		c0.384-0.087,0.77-0.131,1.157-0.131c0.673,0,1.271,0.104,1.792,0.309c0.523,0.206,0.962,0.506,1.318,0.902
		s0.627,0.878,0.813,1.448c0.186,0.571,0.278,1.223,0.278,1.959v7.752h-2.932v-7.752c0-0.775-0.171-1.359-0.511-1.752
		c-0.34-0.392-0.839-0.587-1.495-0.587c-0.301,0-0.58,0.052-0.837,0.154c-0.258,0.104-0.483,0.253-0.677,0.447
		c-0.194,0.193-0.347,0.438-0.457,0.729c-0.111,0.293-0.166,0.629-0.166,1.01v7.752h-2.944v-7.752c0-0.813-0.164-1.41-0.492-1.778
		c-0.329-0.374-0.81-0.56-1.442-0.56c-0.428,0-0.825,0.105-1.193,0.315c-0.367,0.21-0.71,0.497-1.026,0.859v8.916H32.49
		L32.49,26.564z"/>
	<path fill="#FFFFFF" d="M52.087,16.082c1.401-1.282,3.087-1.923,5.058-1.923c0.712,0,1.349,0.117,1.91,0.35
		c0.563,0.233,1.037,0.558,1.425,0.974c0.388,0.415,0.683,0.912,0.885,1.489c0.201,0.579,0.302,1.211,0.302,1.899v7.693h-1.329
		c-0.277,0-0.49-0.043-0.641-0.125c-0.15-0.084-0.269-0.252-0.356-0.506l-0.261-0.879c-0.309,0.276-0.609,0.521-0.902,0.729
		c-0.293,0.211-0.598,0.387-0.914,0.528s-0.654,0.252-1.015,0.326s-0.758,0.113-1.193,0.113c-0.515,0-0.989-0.07-1.424-0.209
		c-0.436-0.137-0.812-0.346-1.128-0.623s-0.563-0.621-0.736-1.031c-0.174-0.412-0.261-0.891-0.261-1.438
		c0-0.309,0.052-0.615,0.154-0.92s0.271-0.596,0.505-0.873c0.232-0.275,0.536-0.537,0.907-0.781
		c0.372-0.246,0.829-0.461,1.371-0.643c0.543-0.183,1.173-0.33,1.894-0.445c0.72-0.113,1.543-0.184,2.469-0.207v-0.713
		c0-0.814-0.174-1.418-0.521-1.811c-0.349-0.392-0.852-0.587-1.508-0.587c-0.476,0-0.868,0.056-1.182,0.167
		c-0.313,0.111-0.587,0.235-0.824,0.374c-0.238,0.139-0.453,0.264-0.647,0.375c-0.194,0.109-0.409,0.166-0.646,0.166
		c-0.206,0-0.38-0.055-0.523-0.16c-0.142-0.108-0.257-0.231-0.344-0.375L52.087,16.082z M58.806,21.365
		c-0.847,0.039-1.559,0.111-2.137,0.219c-0.577,0.105-1.04,0.244-1.389,0.41c-0.349,0.166-0.598,0.359-0.748,0.58
		c-0.15,0.223-0.225,0.463-0.225,0.725c0,0.514,0.152,0.883,0.457,1.104c0.304,0.224,0.702,0.332,1.192,0.332
		c0.602,0,1.122-0.106,1.561-0.323c0.439-0.22,0.869-0.55,1.288-0.992L58.806,21.365L58.806,21.365z"/>
	<path fill="#FFFFFF" d="M67.162,15.88c0.245-0.246,0.505-0.473,0.777-0.683c0.272-0.21,0.562-0.388,0.867-0.534
		c0.304-0.146,0.63-0.261,0.979-0.344c0.348-0.083,0.729-0.125,1.14-0.125c0.665,0,1.254,0.113,1.769,0.338
		c0.515,0.226,0.943,0.542,1.287,0.95c0.345,0.407,0.606,0.894,0.784,1.46c0.178,0.567,0.268,1.19,0.268,1.871v7.752H72.1v-7.752
		c0-0.744-0.17-1.32-0.51-1.729c-0.341-0.407-0.859-0.611-1.556-0.611c-0.506,0-0.98,0.115-1.424,0.345
		c-0.443,0.229-0.863,0.542-1.258,0.938v8.81H64.42V14.384h1.792c0.379,0,0.629,0.178,0.747,0.534L67.162,15.88z"/>
	<path fill="#FFFFFF" d="M81.229,11.939v5.081h6.434v2.553h-6.434v6.992h-3.206V9.399h10.826v2.54H81.229z"/>
	<path fill="#FFFFFF" d="M94.416,10.835c0,0.253-0.051,0.491-0.154,0.712c-0.102,0.222-0.24,0.416-0.41,0.582
		s-0.369,0.299-0.6,0.397c-0.229,0.099-0.475,0.148-0.734,0.148c-0.254,0-0.494-0.049-0.719-0.148
		c-0.227-0.099-0.422-0.231-0.589-0.397c-0.165-0.166-0.298-0.36-0.397-0.582c-0.099-0.221-0.147-0.458-0.147-0.712
		c0-0.261,0.05-0.506,0.147-0.736c0.101-0.23,0.232-0.428,0.397-0.593c0.167-0.166,0.362-0.299,0.589-0.398
		c0.225-0.099,0.465-0.148,0.719-0.148c0.26,0,0.506,0.05,0.734,0.148c0.23,0.099,0.43,0.232,0.6,0.398s0.31,0.363,0.41,0.593
		C94.365,10.329,94.416,10.574,94.416,10.835z M94.012,14.384v12.181h-2.943V14.384H94.012z"/>
	<path fill="#FFFFFF" d="M99.77,16.498c0.379-0.728,0.83-1.3,1.354-1.715c0.521-0.415,1.14-0.623,1.853-0.623
		c0.563,0,1.012,0.123,1.352,0.368l-0.189,2.196c-0.039,0.143-0.096,0.242-0.172,0.301c-0.074,0.06-0.176,0.091-0.303,0.091
		c-0.117,0-0.295-0.021-0.527-0.062c-0.232-0.039-0.461-0.058-0.682-0.058c-0.326,0-0.615,0.046-0.867,0.142
		c-0.254,0.096-0.482,0.23-0.684,0.41c-0.201,0.178-0.379,0.393-0.533,0.646c-0.154,0.252-0.299,0.541-0.434,0.865v7.504h-2.933
		V14.384h1.722c0.301,0,0.51,0.054,0.629,0.16c0.119,0.107,0.196,0.299,0.237,0.576L99.77,16.498z"/>
	<path fill="#FFFFFF" d="M107.77,20.842c0.047,0.625,0.158,1.166,0.332,1.621s0.404,0.83,0.689,1.127
		c0.283,0.297,0.623,0.518,1.014,0.664c0.394,0.146,0.826,0.221,1.301,0.221c0.476,0,0.886-0.057,1.229-0.166
		c0.345-0.11,0.646-0.233,0.901-0.369c0.257-0.133,0.482-0.256,0.677-0.366c0.194-0.111,0.383-0.166,0.563-0.166
		c0.244,0,0.426,0.09,0.545,0.272l0.845,1.066c-0.324,0.381-0.689,0.699-1.093,0.957s-0.825,0.463-1.264,0.617
		c-0.439,0.154-0.889,0.262-1.342,0.326c-0.455,0.063-0.896,0.094-1.324,0.094c-0.848,0-1.635-0.139-2.363-0.42
		c-0.727-0.281-1.358-0.697-1.897-1.246c-0.537-0.551-0.961-1.23-1.271-2.043c-0.309-0.811-0.463-1.75-0.463-2.818
		c0-0.832,0.135-1.611,0.404-2.344c0.268-0.732,0.654-1.37,1.156-1.912s1.115-0.971,1.84-1.288s1.541-0.475,2.451-0.475
		c0.768,0,1.477,0.123,2.125,0.368s1.207,0.604,1.674,1.074c0.467,0.471,0.832,1.048,1.098,1.732
		c0.266,0.687,0.398,1.467,0.398,2.344c0,0.445-0.049,0.742-0.143,0.897c-0.097,0.154-0.277,0.23-0.547,0.23h-7.537V20.842z
		 M113.359,19.072c0-0.379-0.053-0.736-0.16-1.072c-0.105-0.338-0.266-0.633-0.48-0.885c-0.213-0.253-0.484-0.454-0.813-0.6
		s-0.711-0.219-1.146-0.219c-0.846,0-1.514,0.242-2,0.724c-0.486,0.482-0.797,1.168-0.932,2.054L113.359,19.072L113.359,19.072z"/>
	<path fill="#FFFFFF" d="M135.416,14.384l-3.871,12.181h-2.35c-0.271,0-0.457-0.176-0.56-0.523l-2.184-7.039
		c-0.072-0.238-0.138-0.473-0.195-0.705c-0.062-0.234-0.108-0.469-0.147-0.707c-0.049,0.238-0.103,0.477-0.16,0.719
		c-0.059,0.24-0.125,0.48-0.197,0.717l-2.221,7.017c-0.094,0.349-0.303,0.522-0.627,0.522h-2.256l-3.857-12.18h2.338
		c0.213,0,0.396,0.052,0.547,0.155c0.148,0.103,0.25,0.233,0.295,0.391l1.746,6.504c0.088,0.355,0.164,0.705,0.23,1.045
		c0.068,0.34,0.125,0.681,0.174,1.021c0.086-0.34,0.18-0.681,0.279-1.021c0.098-0.34,0.203-0.688,0.313-1.045l2.019-6.527
		c0.047-0.159,0.141-0.289,0.278-0.393c0.138-0.103,0.308-0.154,0.505-0.154h1.293c0.207,0,0.381,0.051,0.526,0.154
		c0.147,0.104,0.244,0.234,0.293,0.393l1.957,6.527c0.104,0.355,0.201,0.707,0.291,1.051c0.092,0.345,0.183,0.687,0.269,1.027
		c0.104-0.674,0.25-1.365,0.438-2.078l1.793-6.504c0.056-0.158,0.153-0.289,0.295-0.391c0.144-0.103,0.313-0.155,0.513-0.155
		L135.416,14.384L135.416,14.384z"/>
	<path fill="#FFFFFF" d="M136.637,16.082c1.4-1.282,3.088-1.923,5.057-1.923c0.714,0,1.351,0.117,1.912,0.35
		c0.563,0.233,1.035,0.558,1.424,0.974c0.39,0.415,0.685,0.912,0.886,1.489c0.203,0.579,0.303,1.211,0.303,1.899v7.693h-1.329
		c-0.277,0-0.49-0.043-0.642-0.125c-0.149-0.084-0.271-0.252-0.354-0.506l-0.263-0.879c-0.31,0.276-0.608,0.521-0.901,0.729
		c-0.293,0.211-0.599,0.387-0.914,0.528c-0.316,0.142-0.654,0.252-1.017,0.326c-0.358,0.074-0.758,0.113-1.19,0.113
		c-0.517,0-0.99-0.07-1.424-0.209c-0.437-0.137-0.813-0.346-1.129-0.623c-0.316-0.277-0.563-0.621-0.736-1.031
		c-0.174-0.412-0.26-0.891-0.26-1.438c0-0.309,0.051-0.615,0.153-0.92s0.271-0.596,0.504-0.873c0.232-0.275,0.537-0.537,0.908-0.781
		c0.371-0.246,0.828-0.461,1.371-0.643c0.541-0.183,1.172-0.33,1.894-0.445c0.721-0.113,1.543-0.184,2.469-0.207v-0.713
		c0-0.814-0.174-1.418-0.521-1.811c-0.35-0.392-0.852-0.587-1.508-0.587c-0.475,0-0.869,0.056-1.182,0.167
		c-0.313,0.111-0.588,0.235-0.824,0.374c-0.238,0.139-0.453,0.264-0.646,0.375c-0.195,0.109-0.41,0.166-0.646,0.166
		c-0.207,0-0.382-0.055-0.523-0.16c-0.143-0.108-0.258-0.231-0.344-0.375L136.637,16.082z M143.355,21.365
		c-0.847,0.039-1.56,0.111-2.138,0.219c-0.577,0.105-1.041,0.244-1.389,0.41c-0.349,0.166-0.599,0.359-0.748,0.58
		c-0.149,0.223-0.226,0.463-0.226,0.725c0,0.514,0.152,0.883,0.457,1.104c0.306,0.224,0.703,0.332,1.193,0.332
		c0.602,0,1.121-0.106,1.561-0.323c0.439-0.22,0.867-0.55,1.287-0.992v-2.054H143.355z"/>
	<path fill="#FFFFFF" d="M151.938,8.924v17.641h-2.932V8.924H151.938z"/>
	<path fill="#FFFFFF" d="M157.836,8.924v17.641h-2.932V8.924H157.836z"/>
	<path fill="#FFFFFF" d="M166.988,7.694h-2.854v8.022h-1.762V7.694h-2.854V6.247h7.471V7.694z"/>
	<path fill="#FFFFFF" d="M178.502,6.247v9.47h-1.551V9.6c0-0.244,0.012-0.508,0.039-0.792l-2.863,5.376
		c-0.135,0.258-0.342,0.386-0.621,0.386h-0.25c-0.279,0-0.486-0.128-0.621-0.386l-2.895-5.396c0.012,0.144,0.023,0.286,0.033,0.426
		c0.008,0.14,0.014,0.268,0.014,0.386v6.117h-1.555v-9.47h1.33c0.078,0,0.146,0.002,0.203,0.007
		c0.059,0.004,0.106,0.016,0.153,0.033c0.045,0.017,0.088,0.046,0.125,0.085c0.037,0.04,0.072,0.091,0.106,0.157l2.836,5.259
		c0.074,0.14,0.144,0.284,0.207,0.433c0.063,0.148,0.125,0.301,0.187,0.458c0.062-0.162,0.125-0.317,0.188-0.468
		c0.066-0.15,0.138-0.296,0.211-0.436l2.796-5.246c0.034-0.065,0.071-0.117,0.11-0.157c0.039-0.039,0.082-0.068,0.129-0.085
		c0.045-0.017,0.099-0.029,0.154-0.033c0.057-0.004,0.123-0.007,0.201-0.007H178.502z"/>
</g>
</svg>
